<svg xmlns="http://www.w3.org/2000/svg" xmlns:xlink="http://www.w3.org/1999/xlink" viewBox="0 0 304.36 87.52"><defs><style>.cls-1{font-size:68.82px;fill:#333;font-family:Vilane-Light, Vilane;font-weight:300;}.cls-2{fill:url(#Degradado_sin_nombre_204);}.cls-3{fill:url(#Degradado_sin_nombre_111);}</style><radialGradient id="Degradado_sin_nombre_204" cx="26.51" cy="58.7" r="79.7" gradientUnits="userSpaceOnUse"><stop offset="0.03" stop-color="#35af53"/><stop offset="0.07" stop-color="#3aac56"/><stop offset="0.44" stop-color="#60946d"/><stop offset="0.73" stop-color="#77857b"/><stop offset="0.91" stop-color="gray"/><stop offset="0.96" stop-color="#929292"/><stop offset="1" stop-color="#999"/></radialGradient><radialGradient id="Degradado_sin_nombre_111" cx="29.56" cy="54.45" r="67.37" gradientUnits="userSpaceOnUse"><stop offset="0.17" stop-color="#00a653"/><stop offset="0.46" stop-color="#006c5d"/><stop offset="0.72" stop-color="#0e4a5b"/><stop offset="1" stop-color="#0f485b"/></radialGradient></defs><title>Recurso 11</title><g id="Capa_2" data-name="Capa 2"><g id="Capa_1-2" data-name="Capa 1"><text class="cls-1" transform="translate(98.93 65.7) scale(0.95 1)">Treball</text><g id="Capa_2-2" data-name="Capa 2"><g id="Capa_1-2-2" data-name="Capa 1-2"><path class="cls-2" d="M28.9,62.57l-8.76-7.43L54.89,25.4l-17-14.61L46.38,3,90.53,40.27l-8.85,7.49L64.05,33.13Z"/><path class="cls-2" d="M1.89,39.88l27-22.11,8.85,7.65L11.43,47.74Z"/><path class="cls-2" d="M64.06,47.49l8.74,7.68L46.53,77.51C44,75.37,41.25,73.05,37.6,70Z"/></g></g><g id="Capa_2-3" data-name="Capa 2"><g id="Capa_1-2-3" data-name="Capa 1-2"><path class="cls-3" d="M27.93,61.62l-9.06-7.68,36-30.76L37.2,8.07,46,0,91.67,38.55,82.52,46.3,64.29,31.18Z"/><path class="cls-3" d="M0,38.15,27.91,15.29l9.15,7.91L9.87,46.28Z"/><path class="cls-3" d="M64.3,46l9,7.94L46.17,77.08c-2.64-2.22-5.47-4.62-9.23-7.81Z"/></g></g></g></g></svg>