<svg xmlns="http://www.w3.org/2000/svg" xmlns:xlink="http://www.w3.org/1999/xlink" viewBox="0 0 154.88 131.67"><defs><style>.cls-1{font-size:49.44px;fill:#333;font-family:Vilane-Light, Vilane;font-weight:300;}.cls-2{fill:url(#Degradado_sin_nombre_204);}.cls-3{fill:url(#Degradado_sin_nombre_111);}</style><radialGradient id="Degradado_sin_nombre_204" cx="61.09" cy="52.95" r="71.9" gradientUnits="userSpaceOnUse"><stop offset="0.03" stop-color="#35af53"/><stop offset="0.07" stop-color="#3aac56"/><stop offset="0.44" stop-color="#60946d"/><stop offset="0.73" stop-color="#77857b"/><stop offset="0.91" stop-color="gray"/><stop offset="0.96" stop-color="#929292"/><stop offset="1" stop-color="#999"/></radialGradient><radialGradient id="Degradado_sin_nombre_111" cx="63.84" cy="49.12" r="60.77" gradientUnits="userSpaceOnUse"><stop offset="0.17" stop-color="#00a653"/><stop offset="0.46" stop-color="#006c5d"/><stop offset="0.72" stop-color="#0e4a5b"/><stop offset="1" stop-color="#0f485b"/></radialGradient></defs><title>Recurso 15</title><g id="Capa_2" data-name="Capa 2"><g id="Capa_1-2" data-name="Capa 1"><text class="cls-1" transform="translate(0 116)">Treball</text><g id="Capa_2-2" data-name="Capa 2"><g id="Capa_1-2-2" data-name="Capa 1-2"><path class="cls-2" d="M63.25,56.45l-7.9-6.71L86.7,22.91,71.34,9.74,79,2.7l39.83,33.62-8,6.76L95,29.89Z"/><path class="cls-2" d="M38.88,36,63.23,16l8,6.9L47.49,43.07Z"/><path class="cls-2" d="M95,42.84l7.89,6.93L79.16,69.93,71.1,63.11Z"/></g></g><g id="Capa_2-3" data-name="Capa 2"><g id="Capa_1-2-3" data-name="Capa 1-2"><path class="cls-3" d="M62.38,55.59l-8.17-6.93L86.63,20.91,70.74,7.28l8-7.28,41.19,34.78-8.26,7L95.18,28.12Z"/><path class="cls-3" d="M37.18,34.42,62.36,13.79l8.25,7.13L46.08,41.75Z"/><path class="cls-3" d="M95.19,41.52l8.15,7.17L78.83,69.53c-2.38-2-4.93-4.17-8.33-7Z"/></g></g></g></g></svg>