<svg xmlns="http://www.w3.org/2000/svg" xmlns:xlink="http://www.w3.org/1999/xlink" viewBox="0 0 154.88 187.67"><defs><style>.cls-1{font-size:49.44px;fill:#333;font-family:Vilane-Light, Vilane;font-weight:300;}.cls-2{fill:url(#Degradado_sin_nombre_204);}.cls-3{fill:url(#Degradado_sin_nombre_111);}</style><radialGradient id="Degradado_sin_nombre_204" cx="48.94" cy="89.12" r="121.01" gradientUnits="userSpaceOnUse"><stop offset="0.03" stop-color="#35af53"/><stop offset="0.07" stop-color="#3aac56"/><stop offset="0.44" stop-color="#60946d"/><stop offset="0.73" stop-color="#77857b"/><stop offset="0.91" stop-color="gray"/><stop offset="0.96" stop-color="#929292"/><stop offset="1" stop-color="#999"/></radialGradient><radialGradient id="Degradado_sin_nombre_111" cx="53.57" cy="82.67" r="102.28" gradientUnits="userSpaceOnUse"><stop offset="0.17" stop-color="#00a653"/><stop offset="0.46" stop-color="#006c5d"/><stop offset="0.72" stop-color="#0e4a5b"/><stop offset="1" stop-color="#0f485b"/></radialGradient></defs><title>Recurso 16</title><g id="Capa_2" data-name="Capa 2"><g id="Capa_1-2" data-name="Capa 1"><text class="cls-1" transform="translate(0 172)">Treball</text><g id="Capa_2-2" data-name="Capa 2"><g id="Capa_1-2-2" data-name="Capa 1-2"><path class="cls-2" d="M52.57,95,39.27,83.72,92,38.56,66.18,16.39,79.12,4.54l67,56.59L132.71,72.51l-26.77-22.2Z"/><path class="cls-2" d="M11.56,60.55,52.53,27,66,38.59,26.05,72.48Z"/><path class="cls-2" d="M106,72.11l13.27,11.66L79.34,117.69c-3.87-3.26-8-6.78-13.55-11.47Z"/></g></g><g id="Capa_2-3" data-name="Capa 2"><g id="Capa_1-2-3" data-name="Capa 1-2"><path class="cls-3" d="M51.1,93.56,37.35,81.89l54.57-46.7L65.18,12.25,78.56,0l69.32,58.53L134,70.3l-27.69-23Z"/><path class="cls-3" d="M8.69,57.93,51.07,23.21,65,35.22,23.67,70.27Z"/><path class="cls-3" d="M106.33,69.88l13.72,12.06L78.8,117c-4-3.38-8.31-7-14-11.86Z"/></g></g></g></g></svg>